# File produced by Open Asset Import Library (http://www.assimp.sf.net)
# (assimp v3.1.6393133)

mtllib Prop_Estalactite_2.mtl

# vertex positions
v -10.219794 92.008827 -8.228785
v -2.682768 91.935364 -8.070845
v -3.477429 92.494278 -17.376471
v -10.722141 92.234116 -16.759546
v -10.809294 91.990112 0.606449
v -3.551446 91.978653 0.592127
v -16.749836 90.767342 -8.905159
v -17.060743 91.675201 -0.237020
v -18.851574 92.668762 -16.772188
v -9.334040 21.537821 -12.681604
v -8.515838 16.716415 -14.256302
v -7.470562 9.135784 -12.876760
v -9.248719 20.215761 -10.890749
v -9.517888 23.272669 -13.882407
v -9.210382 21.753443 -15.172953
v -10.827969 27.382782 -11.757434
v -10.683387 27.383129 -13.915740
v -10.361296 27.856556 -9.550709
v -10.191748 75.355568 -0.685421
v -9.962950 60.040855 -2.361945
v -4.803541 60.200962 -1.403135
v -4.579669 75.771622 -1.121590
v -14.876532 74.780174 -3.318352
v -14.953451 59.014954 -3.736141
v 0.660254 60.156776 -3.042972
v 0.400064 75.642296 -2.828068
v 1.722914 90.690117 -1.019900
v -10.525127 90.688843 -24.733139
v -16.663071 90.688843 -24.733139
v -4.336362 91.389938 -25.609642
v 3.730884 92.506317 -19.059811
v 2.842889 93.469193 -26.941273
v 2.489535 91.383286 -11.778404
v -18.637863 79.915756 -17.281075
v -15.409517 79.567719 -23.116322
v -14.341803 70.095276 -21.739197
v -16.657181 71.834343 -18.260498
v -18.727472 74.116943 -10.368922
v -16.122429 65.326767 -16.001629
v -10.179523 79.899536 -24.819416
v -4.540872 80.176552 -25.388554
v -4.956210 69.159721 -24.021271
v -9.913168 68.836136 -24.142042
v -9.483396 59.869892 -21.414873
v -13.315197 60.987564 -20.415096
v -5.530981 59.521233 -21.335508
v 0.891822 80.883179 -23.922226
v -0.521461 70.786125 -21.839634
v -1.768884 59.719368 -20.230722
v -6.259646 26.095545 -16.250813
v -8.121065 26.729094 -16.068819
v -8.361239 33.023064 -17.380629
v -6.129198 32.800934 -17.162624
v -6.988237 20.522837 -15.242873
v -8.113155 22.566277 -15.494022
v -3.868571 26.263239 -16.551651
v -5.117916 18.904221 -15.184149
v -3.836034 32.984310 -17.014793
v -11.815737 34.690750 -13.920956
v -10.418756 33.556095 -16.711447
v -9.807719 26.680422 -15.950288
v -12.125826 35.503525 -10.961082
v -13.337538 45.751995 -10.194862
v -12.725533 44.223618 -14.090793
v -11.177115 42.019161 -17.657425
v -15.062918 58.557537 -9.645963
v -14.511145 54.798672 -14.722943
v -12.233027 51.386887 -19.019327
v 2.782272 76.020958 -5.606861
v 3.851250 76.475449 -9.912493
v 4.183340 92.915657 -5.762933
v 3.082103 91.919548 -3.640048
v 2.128460 60.866798 -7.144121
v 2.368425 61.612068 -11.474470
v -1.516200 46.061665 -5.688822
v -0.390445 47.784145 -8.754078
v -0.548902 49.456177 -12.194957
v -1.399781 49.977310 -15.580633
v 1.162331 61.417557 -16.112585
v 2.616982 76.657082 -15.960526
v -3.653122 37.449448 -10.458924
v -3.571894 39.611847 -12.900443
v -3.666326 35.300274 -8.137693
v -11.338102 35.856041 -8.196597
v -12.874407 45.546337 -6.263709
v -3.677619 40.801090 -15.301197
v -4.005930 31.088184 -14.214812
v -3.927017 34.409557 -15.487290
v -3.799370 40.557674 -17.536667
v -2.935732 49.367432 -18.725735
v -5.946719 49.920719 -19.421915
v -9.064496 50.541328 -19.515781
v -6.161759 40.859432 -18.085423
v -8.721528 41.299961 -18.347931
v -5.413819 47.126041 -4.908640
v -9.233583 47.529503 -5.513977
v -8.904519 37.179012 -7.665886
v -6.325775 36.531040 -7.742809
v -7.418999 27.243740 -9.591436
v -5.363924 24.127436 -10.091142
v -8.872437 30.394936 -9.081945
v -4.014439 26.820301 -12.202447
v 2.436919 83.803085 -19.648909

# UV coordinates
vt 0.661174 0.572551
vt 0.678611 0.650720
vt 0.580224 0.656612
vt 0.583411 0.590254
vt 0.731718 0.546554
vt 0.760496 0.630247
vt 0.627847 0.495471
vt 0.697657 0.465947
vt 0.561873 0.515390
vt 0.916720 0.892089
vt 0.956965 0.925185
vt 0.987034 0.999998
vt 0.909749 0.913526
vt 0.916858 0.870302
vt 0.936047 0.876189
vt 0.874786 0.845797
vt 0.892539 0.833965
vt 0.854255 0.855262
vt 0.603008 0.275030
vt 0.476386 0.158462
vt 0.509381 0.120463
vt 0.639685 0.235174
vt 0.564642 0.306727
vt 0.435890 0.187820
vt 0.732842 0.411458
vt 0.774907 0.351883
vt 0.540039 0.073050
vt 0.669801 0.193010
vt 0.796369 0.299119
vt 0.491819 0.571794
vt 0.510005 0.530723
vt 0.473184 0.619098
vt 0.557375 0.718325
vt 0.444511 0.679195
vt 0.653856 0.710008
vt 0.488162 0.418297
vt 0.438987 0.454343
vt 0.381480 0.379975
vt 0.423414 0.368645
vt 0.503450 0.343557
vt 0.392782 0.308747
vt 0.408160 0.490116
vt 0.373974 0.525933
vt 0.303134 0.426423
vt 0.338509 0.398650
vt 0.282903 0.319086
vt 0.322247 0.307312
vt 0.248096 0.335470
vt 0.340209 0.561139
vt 0.273933 0.462823
vt 0.215619 0.353857
vt 0.950169 0.822816
vt 0.930468 0.823132
vt 0.905475 0.761935
vt 0.927429 0.756600
vt 0.960868 0.881489
vt 0.943903 0.864416
vt 0.972248 0.812860
vt 0.983627 0.891840
vt 0.948398 0.747010
vt 0.850504 0.770961
vt 0.883418 0.765453
vt 0.914980 0.829275
vt 0.820917 0.780039
vt 0.756380 0.695117
vt 0.798391 0.687572
vt 0.843831 0.687132
vt 0.244307 0.146393
vt 0.290850 0.127354
vt 0.388914 0.220097
vt 0.321666 0.224803
vt 0.258008 0.229847
vt 0.193312 0.158039
vt 0.692204 0.166235
vt 0.717704 0.132352
vt 0.841766 0.269579
vt 0.821368 0.282621
vt 0.136528 0.555197
vt 0.092500 0.398425
vt 0.136012 0.398917
vt 0.182816 0.551873
vt 0.099507 0.557427
vt 0.048775 0.395846
vt 0.020928 0.251001
vt 0.057589 0.265421
vt 0.096722 0.275262
vt 0.132089 0.272428
vt 0.178735 0.385587
vt 0.242913 0.539654
vt 0.030585 0.166883
vt 0.063610 0.181841
vt 0.000002 0.151522
vt 0.795564 0.793954
vt 0.724555 0.718323
vt 0.695343 0.899779
vt 0.704643 0.883559
vt 0.778448 0.933026
vt 0.746884 0.931079
vt 0.092255 0.187789
vt 0.113464 0.181225
vt 0.162272 0.257158
vt 0.756039 0.952310
vt 0.696020 0.921548
vt 0.271302 0.693836
vt 0.220280 0.724769
vt 0.192933 0.248609
vt 0.224318 0.239067
vt 0.137639 0.173668
vt 0.164584 0.165636
vt 0.323162 0.096223
vt 0.662916 0.765052
vt 0.684995 0.733376
vt 0.769163 0.804184
vt 0.758747 0.828603
vt 0.386387 0.040160
vt 0.364864 0.074489
vt 0.398314 0.000002
vt 0.753409 0.857801
vt 0.648221 0.803163
vt 0.841888 0.882738
vt 0.855420 0.919909
vt 0.824767 0.850053
vt 0.727857 0.870622
vt 0.822212 0.930974
vt 0.885765 0.989176
vt 0.813508 0.976581
vt 0.896663 0.679059
vt 0.920773 0.673921
vt 0.870577 0.683789
vt 0.739453 0.701374
vt 0.763039 0.685615
vt 0.722556 0.716324
vt 0.349869 0.687343
vt 0.313512 0.601512

# vertex normals
vn -0.044603 0.998605 0.028261
vn 0.002291 0.999368 0.035478
vn -0.033671 0.999431 0.001746
vn -0.031811 0.998510 -0.044334
vn -0.054493 0.998100 -0.028747
vn 0.039140 0.997993 0.049775
vn -0.084614 0.994997 0.053122
vn -0.114091 0.991876 -0.056255
vn -0.015602 0.999156 -0.037989
vn -0.982913 -0.181201 -0.032382
vn -0.987154 -0.147354 -0.061750
vn -0.987154 -0.147354 -0.061750
vn -0.984478 -0.175097 0.012034
vn -0.970940 -0.201566 -0.129024
vn -0.977798 -0.171529 -0.120367
vn -0.980411 -0.191843 0.044622
vn -0.962366 -0.181927 -0.201876
vn -0.962294 -0.183321 0.200958
vn -0.164812 -0.093898 0.981845
vn -0.194952 -0.146705 0.969779
vn 0.084820 -0.135865 0.987090
vn 0.147069 -0.075350 0.986252
vn -0.333098 -0.104292 0.937107
vn -0.269432 -0.145590 0.951950
vn -0.131066 -0.121881 0.983853
vn -0.288701 -0.147508 0.945988
vn 0.166736 -0.111303 0.979699
vn 0.266145 -0.118015 0.956681
vn 0.297576 -0.071555 0.952013
vn 0.289200 -0.128644 0.948585
vn -0.032173 0.982519 -0.183364
vn 0.029947 0.976890 -0.211634
vn -0.116404 0.990510 -0.073082
vn -0.048339 0.997748 0.046499
vn -0.142454 0.989778 0.006754
vn 0.016215 0.998675 0.048839
vn -0.979077 -0.078981 -0.187539
vn -0.903988 -0.114030 -0.412073
vn -0.874411 -0.174590 -0.452685
vn -0.913449 -0.178036 -0.365943
vn -0.996257 -0.009583 -0.085905
vn -0.932459 -0.073720 -0.353675
vn -0.990163 -0.085372 0.110857
vn -0.980882 0.002023 0.194595
vn -0.950482 -0.190516 -0.245536
vn -0.175765 -0.073651 -0.981673
vn 0.067702 -0.105387 -0.992124
vn 0.192381 -0.192588 -0.962237
vn -0.213184 -0.180647 -0.960166
vn -0.133406 -0.043843 -0.990091
vn -0.033925 -0.078003 -0.996376
vn -0.266572 -0.097952 -0.958825
vn -0.145423 -0.079502 -0.986170
vn -0.411108 -0.166229 -0.896303
vn -0.168644 -0.227450 -0.959076
vn -0.356056 -0.212472 -0.909989
vn 0.170457 -0.223083 -0.959780
vn 0.189290 -0.159220 -0.968926
vn 0.389759 -0.197600 -0.899468
vn 0.041149 -0.138443 -0.989515
vn 0.332408 -0.203514 -0.920916
vn -0.071599 -0.147220 -0.986509
vn -0.114902 -0.160613 -0.980307
vn -0.116575 -0.144772 -0.982574
vn 0.043084 -0.118828 -0.991980
vn -0.126875 -0.179218 -0.975594
vn -0.119321 -0.165710 -0.978929
vn -0.060973 -0.127381 -0.989978
vn -0.125431 -0.179837 -0.975667
vn 0.062682 -0.096524 -0.993355
vn -0.138990 -0.195822 -0.970740
vn -0.125093 -0.176948 -0.976238
vn -0.138990 -0.195822 -0.970740
vn -0.965701 -0.125669 -0.227218
vn -0.918800 -0.121239 -0.375643
vn -0.940464 -0.169318 -0.294720
vn -0.986590 -0.145477 0.074000
vn -0.989102 -0.143599 0.032514
vn -0.968426 -0.134174 -0.210116
vn -0.925598 -0.134546 -0.353787
vn -0.985192 -0.154786 0.073749
vn -0.964446 -0.172777 -0.199978
vn -0.920277 -0.168434 -0.353157
vn 0.924703 -0.077317 0.372755
vn 0.998778 -0.037082 -0.032668
vn 0.993557 -0.028312 0.109743
vn 0.899891 -0.093591 0.425954
vn 0.966764 -0.133673 0.217940
vn 0.984502 -0.143485 -0.100835
vn 0.854547 -0.074281 0.514035
vn 0.914385 -0.118006 0.387265
vn 0.831980 -0.109960 0.543800
vn 0.961572 -0.230447 0.149246
vn 0.971694 -0.235050 0.023707
vn 0.955017 -0.236196 -0.179314
vn 0.925634 -0.214046 -0.312069
vn 0.924533 -0.149364 -0.350612
vn 0.971690 -0.076106 -0.223666
vn 0.985971 -0.166825 -0.005449
vn 0.979505 -0.154704 -0.128986
vn 0.977867 -0.182960 0.101493
vn -0.962182 -0.163178 0.218127
vn -0.981752 -0.153858 0.111767
vn 0.980374 -0.133999 -0.144608
vn 0.999132 -0.040843 0.008243
vn 0.999736 -0.022505 -0.004654
vn 0.984023 -0.109885 -0.140088
vn 0.908459 -0.190358 -0.372110
vn 0.999302 -0.008628 0.036357
vn 0.989670 0.017643 -0.142277
vn 0.120429 -0.166849 -0.978600
vn -0.118238 -0.168839 -0.978526
vn 0.117533 -0.122679 -0.985462
vn -0.115794 -0.133501 -0.984261
vn 0.222714 -0.166161 -0.960619
vn 0.172549 -0.119639 -0.977708
vn -0.971443 -0.125050 0.201646
vn -0.963916 -0.067539 0.257495
vn -0.899217 -0.178220 -0.399558
vn 0.007090 -0.244190 0.969702
vn -0.138014 -0.228623 0.963682
vn -0.082270 -0.206357 0.975012
vn -0.013277 -0.216239 0.976250
vn 0.156135 -0.243723 0.957194
vn 0.050889 -0.218286 0.974557
vn -0.013022 -0.181759 0.983257
vn -0.008549 -0.180785 0.983486
vn -0.045702 -0.187798 0.981144
vn -0.022787 -0.177423 0.983871
vn -0.022833 -0.178406 0.983692
vn -0.036753 -0.178829 0.983193
vn 0.962471 -0.165474 0.215100
vn 0.986183 -0.116993 0.117283
vn 0.969386 -0.163796 0.182925
vn 0.996614 -0.065219 0.050063
vn 0.949520 -0.194938 0.245787
vn 0.874209 -0.154681 -0.460252
vn 0.913089 -0.137338 -0.383935
vn -0.250276 -0.170310 -0.953077
vn -0.275451 -0.140291 -0.951023
vn -0.123966 -0.216924 0.968285
vn -0.278322 -0.144645 -0.949534
vn -0.171860 -0.160379 -0.971979
vn -0.077910 -0.197149 0.977273
vn -0.974144 -0.036214 0.223008
vn -0.006778 0.999073 0.042510
vn 0.085968 0.988931 0.120937
vn -0.122520 0.990864 -0.056370
vn 0.958688 -0.166451 -0.230676
vn 0.971576 -0.167219 -0.167562
vn 0.992307 -0.111811 -0.053153
vn 0.982804 -0.130124 -0.131009

# Mesh
g Pyramid001
usemtl DefaultMaterial
f 2/2/2 3/3/3 4/4/4 1/1/1
f 6/6/6 2/2/2 1/1/1 5/5/5
f 5/5/5 1/1/1 7/7/7 8/8/8
f 1/1/1 4/4/4 9/9/9 7/7/7
f 11/11/11 12/12/12 13/13/13 10/10/10
f 15/15/15 11/11/11 10/10/10 14/14/14
f 14/14/14 10/10/10 16/16/16 17/17/17
f 10/10/10 13/13/13 18/18/18 16/16/16
f 21/21/21 22/22/22 19/19/19 20/20/20
f 20/20/20 19/19/19 23/23/23 24/24/24
f 19/19/19 5/25/25 8/8/26 23/23/23
f 22/22/22 6/26/27 5/25/25 19/19/19
f 25/27/28 26/28/29 22/22/22 21/21/21
f 26/28/29 27/29/30 6/26/27 22/22/22
f 4/4/4 28/30/31 29/31/32 9/9/9
f 3/3/3 30/32/33 28/30/31 4/4/4
f 31/33/34 32/34/35 30/32/33 3/3/3
f 33/35/36 31/33/34 3/3/3 2/2/2
f 35/37/38 36/38/39 37/39/40 34/36/37
f 29/31/42 35/37/38 34/36/37 9/9/41
f 38/40/43 7/7/44 9/9/41 34/36/37
f 37/39/40 39/41/45 38/40/43 34/36/37
f 41/43/47 42/44/48 43/45/49 40/42/46
f 30/32/51 41/43/47 40/42/46 28/30/50
f 28/30/50 40/42/46 35/37/52 29/31/53
f 40/42/46 43/45/49 36/38/54 35/37/52
f 43/45/49 44/46/55 45/47/56 36/38/54
f 42/44/48 46/48/57 44/46/55 43/45/49
f 47/49/58 48/50/59 42/44/48 41/43/47
f 32/34/60 47/49/58 41/43/47 30/32/51
f 48/50/59 49/51/61 46/48/57 42/44/48
f 53/55/65 50/52/62 51/53/63 52/54/64
f 50/52/62 54/56/66 55/57/67 51/53/63
f 56/58/68 57/59/69 54/56/66 50/52/62
f 58/60/70 56/58/68 50/52/62 53/55/65
f 55/57/67 54/56/66 11/11/71 15/15/72
f 54/56/66 57/59/69 12/12/73 11/11/71
f 60/62/75 61/63/76 17/17/17 59/61/74
f 17/17/17 16/16/16 62/64/77 59/61/74
f 15/15/15 14/14/14 17/17/17 61/63/76
f 59/61/74 62/64/77 63/65/78 64/66/79
f 65/67/80 60/62/75 59/61/74 64/66/79
f 64/68/79 63/69/78 66/70/81 67/71/82
f 68/72/83 65/73/80 64/68/79 67/71/82
f 70/75/85 71/76/86 72/77/87 69/74/84
f 70/81/85 69/78/84 73/79/88 74/80/89
f 73/79/88 69/78/84 26/82/90 25/83/91
f 69/74/84 72/77/87 27/29/92 26/28/90
f 73/79/88 25/83/91 75/84/93 76/85/94
f 74/80/89 73/79/88 76/85/94 77/86/95
f 79/88/97 74/80/89 77/86/95 78/87/96
f 80/89/98 70/81/85 74/80/89 79/88/97
f 77/86/95 76/85/94 81/90/99 82/91/100
f 76/85/94 75/84/93 83/92/101 81/90/99
f 62/64/77 84/93/102 85/94/103 63/65/78
f 16/16/16 18/18/18 84/93/102 62/64/77
f 86/95/104 82/96/100 87/97/105 88/98/106
f 78/87/96 77/86/95 82/91/100 86/99/104
f 90/101/108 78/87/96 86/99/104 89/100/107
f 89/103/107 86/95/104 88/98/106 58/102/109
f 71/105/86 70/81/85 80/89/98 33/104/110
f 46/48/57 91/106/111 92/107/112 44/46/55
f 91/106/111 93/108/113 94/109/114 92/107/112
f 90/101/115 89/100/116 93/108/113 91/106/111
f 49/51/61 90/101/115 91/106/111 46/48/57
f 67/71/82 66/70/81 38/40/43 39/41/45
f 24/24/117 23/23/118 38/40/43 66/70/81
f 63/69/78 85/110/103 24/24/117 66/70/81
f 45/47/119 68/72/83 67/71/82 39/41/45
f 36/38/39 45/47/119 39/41/45 37/39/40
f 98/114/123 95/111/120 96/112/121 97/113/122
f 95/115/120 21/21/21 20/20/20 96/116/121
f 75/117/124 25/27/28 21/21/21 95/115/120
f 83/118/125 75/119/124 95/111/120 98/114/123
f 100/121/127 83/118/125 98/114/123 99/120/126
f 99/120/126 98/114/123 97/113/122 101/122/128
f 100/121/127 99/120/126 13/13/129 12/12/130
f 99/120/126 101/122/128 18/18/131 13/13/129
f 81/123/99 83/118/101 100/121/132 102/124/133
f 82/96/100 81/123/99 102/124/133 87/97/105
f 56/126/135 87/97/105 102/124/133 57/125/134
f 57/125/134 102/124/133 100/121/132 12/12/136
f 56/126/135 58/102/109 88/98/106 87/97/105
f 79/88/97 78/87/96 90/101/108 49/51/137
f 80/89/98 79/88/97 49/51/137 48/50/138
f 44/46/55 92/107/112 68/72/139 45/47/56
f 92/107/112 94/109/114 65/73/140 68/72/139
f 96/116/121 20/20/20 24/24/24 85/110/141
f 89/128/116 58/60/70 53/55/65 93/127/113
f 93/127/113 53/55/65 52/54/64 94/129/114
f 94/129/114 52/54/64 60/62/142 65/67/140
f 52/54/64 51/53/63 61/63/143 60/62/142
f 51/53/63 55/57/67 15/15/72 61/63/143
f 97/113/122 96/112/121 85/94/141 84/93/144
f 101/122/128 97/113/122 84/93/144 18/18/131
f 23/23/118 8/8/145 7/7/44 38/40/43
f 27/131/147 72/130/146 2/2/2 6/6/6
f 72/130/146 71/132/148 33/35/36 2/2/2
f 32/34/150 31/133/151 103/134/152 47/49/149
f 103/134/152 80/89/98 48/50/138 47/49/149
f 31/133/151 33/104/110 80/89/98 103/134/152
